<svg xmlns="http://www.w3.org/2000/svg" width="3in" height="1.688in" viewBox="310.313 79.132 371.25 213.402">
  <path fill="#252525" d="M352.5 201.094h-11.719c-4.373.009-2.587.173-5.756 1.481-1.097.455-1.659.295-2.639.53-3.211.778-.155 1.27-7.073 1.27v1.406h-4.219c.019 2.086-.314 3.427 1.875 4.219 0 2.198-.38 3.778.938 5.625-3.15.455-2.803 1.959-2.813 4.688h4.219v1.406c6.623 0 4.645.811 7.973.928 1.542.056 3.506-.23 4.537 1.214 1.359 1.913-.281 4.195-1.242 5.869-1.922 3.328-6.82 11.85-9.066 14.489-1.181 1.387-6.098 5.067-6.206 6.127-.244 2.325 3.506 1.861 4.941 1.842 8.831-.131 14.02-11.184 18.563-17.55.75-1.05 2.798-4.505 3.647-5.058.577-.295 1.055-.305 1.678 0 2.048.769 1.889 2.981 1.894 4.795.005 2.784.764 8.944-1.472 10.753-3.173 2.573-10.894 1.505-11.006 6.192-.07 3.089 5.297 2.264 7.322 2.273 4.795.023 5.147 1.092 5.156 5.625.005 4.317-.464 11.067 4.688 12.656v2.344h12.75c-.005 0 .141-5.513.464-7.519.703-3.019-.07-9.009 0-12.638-.112-4.317-.998-2.302-1.027-8.438-.009-2.264-.895-5.513.267-7.345 1.345-2.123 5.691-3.356 6.703-5.048.638-1.064.525-2.794.53-4.013h-6.094v-1.378h6.075l5.175.911v-7.031l-5.625.909h-5.625v-2.315h2.813c1.561-.005 4.195.066 5.48-.905 1.448-1.102 1.58-6.314.347-7.603-1.833-1.913-8.77-1.35-11.452-1.336-2.077.009-3.834-.309-4.688 1.875-2.297-.023-4.083.075-5.152-2.362-.553-1.252-.375-2.606-1.223-3.45-1.439-1.43-6.333.173-4.65-3.891l.712-1.547ZM462.188 88.51c-.694 4.031-5.686 3.183-7.786.919-3.253-3.506-1.2-9.422 3.567-10.111 2.766-.394 4.327.966 3.67 1.969-.769 1.167-2.953-.427-4.945 1.416-1.978 1.828-1.125 4.744.858 5.808 1.219.525 3.258.145 4.636 0Zm4.692-8.963c2.166-.483 4.28-.441 5.981 1.209 3.08 2.977 1.828 8.888-2.241 10.247-6.544 2.194-11.011-8.02-3.741-11.456Zm11.714 11.391c-.717-.127-1.355-.098-1.866-.75-.727-.923-.502-6.272-.478-7.687.014-.769-.042-2.292.745-2.733 1.158-.642 2.4 1.031 2.963 1.805l2.386 3.271c1.191-2.442 2.175-4.378 4.688-5.625l.469 11.719c-3.567-.628-1.617-2.358-2.813-6.563-2.1 5.339-3.68 3.103-6.094 0v6.563Zm13.594 0c-.717-.127-1.355-.098-1.866-.75-.727-.923-.502-6.272-.478-7.687.014-.769-.042-2.292.745-2.733 1.158-.642 2.4 1.031 2.963 1.805l2.386 3.271c1.191-2.442 2.175-4.378 4.688-5.625l.469 11.719c-3.567-.628-1.617-2.358-2.813-6.563-2.1 5.339-3.68 3.103-6.094 0v6.563Zm19.219-.469c-1.491.422-6.436 1.055-7.491-.281-.497-.628-.464-1.772-.478-2.531-.127-6.984-.647-8.363 3.281-8.438.708-.009 5.325-.248 4.139 1.622-.628.994-3.961.722-5.077.722v2.344c.998 0 3.548-.211 4.139.722 1.191 1.88-3.441 1.622-4.139 1.622v2.813l5.625.469v.938Zm3.75.469c-.717-.127-1.355-.098-1.866-.75-.727-.923-.502-6.272-.478-7.687.019-.914-.047-2.17.75-2.803.605-.478 7.894-1.856 8.498 2.803.173 1.341-.417 2.475-.417 3.75l1.013 4.688c-2.836-.234-3.028-1.045-3.281-3.75h-4.219v3.75Zm17.813-2.428c-.694 4.031-5.686 3.183-7.786.919-3.253-3.506-1.2-9.422 3.567-10.111 2.766-.394 4.327.966 3.67 1.969-.769 1.167-2.953-.427-4.945 1.416-1.978 1.828-1.125 4.744.858 5.808 1.219.525 3.258.145 4.636 0Zm3.75 2.428c-.717-.127-1.355-.098-1.866-.75-.727-.923-.502-6.272-.478-7.687.019-.783-.037-2.25.722-2.733 1.777-1.125 1.622 2.977 1.622 3.67v7.5Zm11.25.469c-1.964-1.275-3.286-3.623-6.033-2.531-1.317.52-1.819 1.936-2.794 1.903-.9-.028-.825-1.134-.698-1.734l3.281-7.922c.455-.787 1.2-1.889 2.269-1.355.745.37 1.378 1.988 1.702 2.733 1.205 2.78 3.066 5.85 2.273 8.906Zm9.375-.938c-1.491.422-6.436 1.055-7.491-.281-.731-.923-.483-5.395-.478-6.75 0-.694-.155-4.795 1.622-3.67.759.483.703 1.95.722 2.733v6.094c2.606 0 3.188-.192 5.625.938v.938Zm16.406.469-2.813-.323c-1.688.005-2.916.919-4.683.591-2.602-.483-3.802-2.958-2.948-5.381l1.05-2.048c.52-1.341.15-2.63 1.556-3.741 1.955-1.547 5.409-1.233 5.963 1.997-.802-.098-2.977-.642-3.577-.337-2.095 1.059 1.856 3.994 2.639 4.556l.469-1.875h.938l1.406 6.563Zm8.438 0c-.717-.127-1.355-.098-1.866-.75-.727-.923-.502-6.272-.478-7.687.019-.914-.047-2.17.75-2.803.605-.478 7.894-1.856 8.498 2.803.173 1.341-.417 2.475-.417 3.75l1.013 4.688c-2.836-.234-3.028-1.045-3.281-3.75h-4.219v3.75Zm16.875-.469c-1.491.422-6.436 1.055-7.491-.281-.497-.628-.464-1.772-.478-2.531-.127-6.984-.647-8.363 3.281-8.438.708-.009 5.325-.248 4.139 1.622-.628.994-3.961.722-5.077.722v2.344c.998 0 3.548-.211 4.139.722 1.191 1.88-3.441 1.622-4.139 1.622v2.813l5.625.469v.938Zm7.5-3.281-4.172-1.467c-.595-.281-1.036-.539-1.448-1.073-3.984-5.133 7.786-8.198 7.027-2.147-2.681-.698-2.808-1.125-5.625-.469 2.653 3.141 5.658 1.781 6.342 4.73 1.186 5.142-8.916 6.525-8.217.895 2.934.83 3.811 2.17 6.094-.469Zm6.094 3.75c-.717-.127-1.355-.098-1.866-.75-.727-.923-.502-6.272-.478-7.687.019-.783-.037-2.25.722-2.733 1.777-1.125 1.622 2.977 1.622 3.67v7.5Zm3.094-11.241c2.086-.886 5.77-.736 7.603.764 2.606 2.17 2.573 7.191 0 9.394-1.289 1.13-6.68 1.842-7.875.333-.586-.745-.478-2.536-.478-3.469-.005-2.114-.492-5.292.75-7.022Zm18.936 10.772c-1.491.422-6.436 1.055-7.491-.281-.497-.628-.464-1.772-.478-2.531-.127-6.984-.647-8.363 3.281-8.438.708-.009 5.325-.248 4.139 1.622-.628.994-3.961.722-5.077.722v2.344c.698 0 5.33-.258 4.139 1.622-.591.933-3.141.722-4.139.722v2.813l5.625.469v.938Zm3.75-6.563v3.75c-.014.713-.103 3.694-1.622 2.733-.759-.483-.703-1.95-.689-2.733v-6.534c.211-1.041.656-1.833 1.852-1.355 1.139.45 2.761 2.667 3.544 3.67l2.541 3.281.478-6.755 1.396-.744c.633 2.606.502 5.302.469 7.969-.014 1.059.075 3.473-1.505 3.464-1.73-.009-5.302-5.311-6.464-6.745Zm12.67-2.344c-.717-.023-3.712-.098-2.747-1.622.563-.886 2.737-.722 3.67-.722.928 0 3.309-.094 4.064.277.314.159.591.37.666.741.267 1.355-2.091 1.298-2.855 1.327v6.094c-.019.975.037 2.986-1.406 2.986-1.12 0-1.303-1.209-1.392-2.058v-7.022Zm9.83 9.375c-.717-.127-1.355-.098-1.866-.75-.727-.923-.502-6.272-.478-7.687.019-.783-.037-2.25.722-2.733 1.777-1.125 1.622 2.977 1.622 3.67v7.5Zm11.25.469c-1.964-1.275-3.286-3.623-6.033-2.531-1.317.52-1.819 1.936-2.794 1.903-.9-.028-.825-1.134-.698-1.734l3.281-7.922c.455-.787 1.2-1.889 2.269-1.355.745.37 1.378 1.988 1.702 2.733 1.205 2.78 3.066 5.85 2.273 8.906Zm9.375-.938c-1.491.422-6.436 1.055-7.491-.281-.731-.923-.483-5.395-.478-6.75 0-.694-.155-4.795 1.622-3.67.759.483.703 1.95.722 2.733v6.094c2.606 0 3.188-.192 5.625.938v.938Zm-213.722-8.62c-4.153 2.494-1.42 7.8 1.828 6.82 3.197-.966 3.511-7.692-1.828-6.82Zm47.315 2.996c.839 0 2.855.084 3.548-.267a1.534 1.534 0 0 0 0-2.747c-.694-.352-2.709-.267-3.548-.267v3.281Zm67.031 0c.839 0 2.855.084 3.548-.267a1.534 1.534 0 0 0 0-2.747c-.694-.352-2.709-.267-3.548-.267v3.281Zm35.156 4.219c1.373-.014 2.939.08 4.055-.816 2.072-1.584 1.617-5.034 0-6.136-1.027-.661-2.878-.544-4.055-.548v7.5Zm-73.594-5.625-1.875 2.813h2.813l-.938-2.813Zm124.219 0-1.875 2.813h2.813l-.938-2.813Zm-98.906 5.156-3.281-2.813c-.591 2.869.661 3.469 3.281 2.813Zm-10.313 19.219-4.172-1.467c-.595-.281-1.036-.539-1.448-1.073-3.984-5.133 7.786-8.198 7.027-2.147-2.681-.698-2.808-1.125-5.625-.469 2.653 3.141 5.658 1.781 6.342 4.73 1.186 5.142-8.916 6.525-8.217.895 2.934.83 3.811 2.17 6.094-.469Zm6.094 3.75c-.717-.127-1.355-.098-1.866-.75-.727-.923-.502-6.272-.478-7.687.033-1.669-.047-2.883 1.903-3.211 1.369-.234 3.886-.117 4.983.745 2.016 1.491 1.866 4.744 0 6.211-1.327.994-3.005.928-4.542.942v3.75Zm9.844 0c-.717-.127-1.355-.098-1.866-.75-.727-.923-.502-6.272-.478-7.687.019-.914-.047-2.17.75-2.803.605-.478 7.894-1.856 8.498 2.803.173 1.341-.417 2.475-.417 3.75l1.013 4.688c-2.836-.234-3.028-1.045-3.281-3.75h-4.219v3.75Zm17.813.469c-1.964-1.275-3.286-3.623-6.033-2.531-1.317.52-1.819 1.936-2.794 1.903-.9-.028-.825-1.134-.698-1.734l3.281-7.922c.455-.787 1.2-1.889 2.269-1.355.745.37 1.378 1.988 1.702 2.733 1.205 2.78 3.066 5.85 2.273 8.906Zm4.688-7.969 1.528-1.866c.398-.502.9-1.214 1.425-1.575 1.12-.773 2.086-.263 1.739 1.125-.286 1.163-1.894 3.038-2.513 4.191-.961 1.781-.539 2.091-.839 3.722-.131.703-.581 1.973-1.556 1.355-.933-.591-.6-2.522-.863-3.67-.52-2.288-2.709-3.942-3.141-5.597-.286-1.078.281-1.814 1.392-1.355 1.411.586 2.269 2.358 2.827 3.67Zm13.125 7.5c-.717-.127-1.355-.098-1.866-.75-.727-.923-.502-6.272-.478-7.687.033-1.669-.047-2.883 1.903-3.211 1.369-.234 3.886-.117 4.983.745 2.016 1.491 1.866 4.744 0 6.211-1.327.994-3.005.928-4.542.942v3.75Zm15.938.469c-1.964-1.275-3.286-3.623-6.033-2.531-1.317.52-1.819 1.936-2.794 1.903-.9-.028-.825-1.134-.698-1.734l3.281-7.922c.455-.787 1.2-1.889 2.269-1.355.745.37 1.378 1.988 1.702 2.733 1.205 2.78 3.066 5.85 2.273 8.906Zm3.75-.469c-.717-.127-1.355-.098-1.866-.75-.727-.923-.502-6.272-.478-7.687.019-.783-.037-2.25.722-2.733 1.777-1.125 1.622 2.977 1.622 3.67v7.5Zm4.688-7.031v3.75c-.014.713-.103 3.694-1.622 2.733-.759-.483-.703-1.95-.689-2.733v-6.534c.211-1.041.656-1.833 1.852-1.355 1.139.45 2.761 2.667 3.544 3.67l2.541 3.281.478-6.755 1.395-.745c.633 2.606.502 5.302.469 7.969-.014 1.059.075 3.473-1.505 3.464-1.73-.009-5.302-5.311-6.464-6.745Zm12.67-2.344c-.717-.023-3.712-.098-2.747-1.622.609-.966 3.553-.722 4.608-.722.792 0 2.442-.061 3.127.277.314.159.591.37.666.741.267 1.355-2.091 1.298-2.855 1.327v6.094c-.019.975.037 2.986-1.406 2.986-1.12 0-1.303-1.209-1.392-2.058v-7.023Zm9.83 9.375c-.717-.127-1.355-.098-1.866-.75-.727-.923-.502-6.272-.478-7.687.019-.783-.037-2.25.722-2.733 1.777-1.125 1.622 2.977 1.622 3.67v7.5Zm4.688-7.031v3.75c-.014.713-.103 3.694-1.622 2.733-.759-.483-.703-1.95-.689-2.733v-6.534c.211-1.041.656-1.833 1.852-1.355 1.139.45 2.761 2.667 3.544 3.67l2.541 3.281.478-6.755 1.394-.745c.633 2.606.502 5.302.469 7.969-.014 1.059.075 3.473-1.505 3.464-1.73-.009-5.302-5.311-6.464-6.745Zm17.344 2.813c-4.875-.389-.586-3.516 1.608-1.795.698.548.708 1.463.727 2.269.066 3.061-1.617 4.43-4.678 4.041-7.458-.947-7.35-11.334 0-11.963 1.767-.155 2.653.159 4.219.886-1.894 3.267-5.709-.248-6.942 4.223-.727 2.639 3.609 6.881 5.067 2.339Zm-114.375-1.875c1.284-.014 3.675.15 3.497-1.828-.052-.577-.328-.923-.834-1.172-.638-.319-1.941-.272-2.662-.281v3.281Zm9.844 0c.839 0 2.855.084 3.548-.267a1.534 1.534 0 0 0 0-2.747c-.694-.352-2.709-.267-3.548-.267v3.281Zm35.625 0c1.284-.014 3.675.15 3.497-1.828-.052-.577-.328-.923-.834-1.172-.638-.319-1.941-.272-2.662-.281v3.281Zm-22.031-1.406-1.875 2.813h2.813l-.938-2.813Zm33.75 0-1.875 2.813h2.813l-.938-2.813Zm-174.846 59.53c6.455 3.108 9.717 5.714 17.344 5.625 6.155-.075 9.623-4.617 6.295-8.864-2.002-2.555-6.173-4.27-9.108-5.536-6.019-2.597-12.792-5.498-15.694-11.85-4.772-10.43 1.078-20.152 11.475-23.555 7.219-2.367 16.036-1.181 22.969 1.622 1.294.52 4.533 1.884 4.95 3.281.277.923-.394 1.945-.83 2.714-.694 1.223-4.097 7.078-4.875 7.664-1.411 1.059-3.108-.455-4.402-1.111-3.703-1.88-8.142-3.028-12.188-1.58-2.034.731-4.031 2.484-3.53 4.87.534 2.513 3.741 4.43 5.873 5.498 5.737 2.878 10.617 3.483 15.919 8.236 7.237 6.483 8.241 19.148.914 25.969-5.123 4.767-12.844 6.309-19.645 6.234-5.484-.066-11.892-1.561-16.875-3.834-1.406-.638-4.777-1.931-4.828-3.712-.028-1.069 1.092-2.784 1.641-3.703l4.594-7.969Zm-136.875-44.063h16.406l4.181 24.844c.675 4.083 1.753 13.045 3.319 16.406l8.264-31.875 2.855-8.911 3.412-.464h7.5l5.681 21.563 5.569 20.156 2.695-16.406 4.336-25.313h16.406l-4.383 19.688-5.766 25.313-3.914 16.875H359.53l-5.92-24.375-3.455-12.188-8.438 36.563h-13.594l-3.488-.478-1.472-3.741-2.236-9.844-6.811-30-3.806-17.813Zm118.125 48.75 3.895 6.094c.558.914 1.406 2.114 1.069 3.239-.417 1.378-2.77 2.587-4.027 3.103-3.605 1.472-9.225 2.114-13.125 2.095-11.648-.052-21.97-6.619-22.031-19.219-.028-6.3.258-10.927 4.828-15.914 7.5-8.137 24.68-8.292 32.119 0 3.192 3.534 3.952 7.612 4.575 12.164.155 1.158.464 3.933-.281 4.875-.736.928-2.662.75-3.741.75h-23.906c2.536 7.069 9.628 7.856 15.938 5.405 1.697-.656 3.145-1.65 4.688-2.592Zm82.031-20.625c3.131-6.066 16.716-9.089 24.839-1.791 13.088 11.761 5.531 39.361-14.058 36.811-5.259-.684-7.552-2.297-11.25-5.958v24.375h-14.531V142.5h11.25l2.803.75.947 4.406Zm52.031-.469c3.52-7.097 13.716-6.375 19.688-3.281l-5.625 12.188c-1.402-.853-2.62-1.744-4.219-2.198-4.331-1.233-8.484 1.252-9.914 5.48-.581 1.72-.398 5.536-.398 7.5v14.531h-15v-29.531c0-1.678-.436-7.955.75-8.897.745-.586 2.536-.478 3.469-.478h7.5c.914.019 2.17-.047 2.803.75.394.497.68 3.005.947 3.938Zm51.563 28.594c-3.802 8.034-17.377 9.572-25.294 2.259-11.569-10.683-7.261-36.872 13.106-36.469 5.25.098 8.508 2.025 12.188 5.616l.478-3.938 3.741-.75h10.313v38.906h-14.063l-.469-5.625Zm19.219-32.813 10.781-.469 3.511.478 3.051 7.023 6.563 18.281 7.594-19.219c2.362-5.902 1.758-6.534 6-6.563h10.781l-6.417 15-13.884 30.469-3.877 8.438-2.362 4.688h-14.242l5.747-13.594 2.362-6.094-4.631-12.188-10.978-26.25Zm-211.406 14.531c-.923-8.18-12.258-8.006-13.594 0h13.594Zm94.688-4.036c-11.114 3.342-7.144 19.917 4.219 17.447 6.506-1.411 8.602-9.942 4.505-14.775-2.381-2.808-5.297-3.131-8.723-2.672Zm87.188-.028c-11.283 2.803-7.936 19.608 3.75 17.503 6.656-1.195 8.512-10.017 4.505-14.827-2.288-2.747-4.922-3.047-8.255-2.677Zm-78.717 71.18c3.159-.567 6.403-.384 9.605-.37 8.372.037 18.863 3.881 25.847 8.381 4.008 2.583 7.383 5.569 10.702 8.972.839.858 2.438 3.197 3.703 2.888.708-.173 2.658-1.941 3.319-2.489 1.866-1.533 3.848-2.902 5.911-4.163 6.23-3.816 15.164-6.933 22.523-6.942h7.383l8.494.722h3.323l4.8.384c5.522-.023 12.22-1.387 16.988-4.228 7.552-4.5 8.4-11.747 3.848-20.156-1.28-2.044-10.697-6.548-10.697-6.52.028-.056 14.077.042 14.063 0-.019.042 10.162 12.544 4.43 22.411-6.033 10.397-19.716 13.425-30.844 13.294l-7.758-.675-7.383-.464-3.694-.323c-12.591.403-23.587 5.559-32.494 14.386 1.739 1.627 3.211 4.805 4.163 7.013 3.263 7.552 5.128 19.903-2.316 25.702-3.891 3.033-9.905 2.278-13.12-1.364-2.452-2.775-3.478-6.675-3.497-10.308-.023-5.217 1.087-9.445 3.642-14.03.984-1.767 2.048-3.53 3.239-5.166.408-.558 1.387-1.692 1.406-2.372.023-.83-1.219-2.189-1.748-2.798-1.781-2.053-4.416-4.566-6.539-6.277-8.381-6.741-16.959-10.359-27.694-11.109-1.275-.089-1.992-.366-3.323-.267l-3.323.3c1.561 3.905 3.272 8.297 3.319 12.553.084 7.162-.108 11.114-3.413 17.723-5.119 10.238-15.773 18.352-27.605 18.084-1.992-.047-5.498-.642-7.383-1.303-1.528-.534-3.502-1.509-4.814-2.489-9.23-7.05-6.009-20.302 0-28.322 3.164-4.275 7.078-7.959 11.461-11.002 7.345-5.1 11.953-6.516 20.311-8.939-3.844-4.177-6.038-6.553-11.081-9.441-18.703-10.702-36.872-2.489-54.413 3.309-17.539 5.799-79.929 69.783-83.712 71.874-3.783 2.091-8.489 2.011-11.133-.938-2.644-2.948-.131-15.984-.145-15.938 0 0 5.7.009 5.714 0 .009-.009-4.627 16.533 1.931 12.656 6.558-3.877 41.414-39.347 43.397-41.194 1.983-1.842 29.391-25.866 41.761-31.148 12.366-5.287 20.883-7.303 31.491-8.044l3.689-.333c10.791-.127 21.403 2.813 29.911 9.6 2.677 2.133 6.403 5.695 7.753 8.859Zm-3.337 5.33c-11.991 1.556-26.053 11.133-31.866 21.623-3.286 5.93-4.833 13.537 1.233 18.314.984.778 2.503 1.542 3.694 1.955 1.537.534 3.178.755 4.8.773 15.548.183 27.497-13.678 27.323-28.795-.037-3.323-1.055-7.242-2.236-10.341-.638-1.655-1.064-3.216-2.948-3.53Zm52.453 23.466c-3.755 3.131-6.994 10.983-7.017 15.877-.019 3.736.623 9.356 5.17 10.214 4.111.778 6.038-3.136 6.717-6.52 1.439-7.191-1.397-13.467-4.87-19.57Z"/>
</svg>